<svg width="20" height="20" viewBox="0 0 20 20" fill="none" xmlns="http://www.w3.org/2000/svg">
<g id="face-smile" clip-path="url(#clip0_1_8994)">
<path id="Icon" d="M6.66666 11.6666C6.66666 11.6666 7.91666 13.3333 9.99999 13.3333C12.0833 13.3333 13.3333 11.6666 13.3333 11.6666M12.5 7.49996H12.5083M7.49999 7.49996H7.50832M18.3333 9.99996C18.3333 14.6023 14.6024 18.3333 9.99999 18.3333C5.39762 18.3333 1.66666 14.6023 1.66666 9.99996C1.66666 5.39759 5.39762 1.66663 9.99999 1.66663C14.6024 1.66663 18.3333 5.39759 18.3333 9.99996ZM12.9167 7.49996C12.9167 7.73008 12.7301 7.91663 12.5 7.91663C12.2699 7.91663 12.0833 7.73008 12.0833 7.49996C12.0833 7.26984 12.2699 7.08329 12.5 7.08329C12.7301 7.08329 12.9167 7.26984 12.9167 7.49996ZM7.91666 7.49996C7.91666 7.73008 7.73011 7.91663 7.49999 7.91663C7.26987 7.91663 7.08332 7.73008 7.08332 7.49996C7.08332 7.26984 7.26987 7.08329 7.49999 7.08329C7.73011 7.08329 7.91666 7.26984 7.91666 7.49996Z" stroke="#175CD3" stroke-width="1.5" stroke-linecap="round" stroke-linejoin="round"/>
</g>
<defs>
<clipPath id="clip0_1_8994">
<rect width="20" height="20" fill="white"/>
</clipPath>
</defs>
</svg>
